<svg width="200" height="200" viewBox="0 0 200 200" fill="none" xmlns="http://www.w3.org/2000/svg">
<g opacity="0.25">
<path d="M117.454 111.07C117.92 111.372 118.384 111.676 118.844 111.98C118.408 111.928 117.942 111.886 117.454 111.864V111.072V111.07Z" fill="#5D055E"/>
</g>
<g opacity="0.25">
<path d="M117.42 93.6958C117.386 92.7958 117.324 91.9038 117.234 91.0178C118.512 91.4138 119.73 91.5658 120.688 91.6138L117.42 93.6958Z" fill="#5D055E"/>
</g>
<g opacity="0.25">
<path d="M120.22 111.338C119.316 110.732 118.386 110.122 117.454 109.526V103.582C120.012 103.356 122.862 103.17 125.724 103.106C123.432 104.772 120.792 107.092 120.474 109.122C120.344 109.938 120.258 110.682 120.22 111.338Z" fill="#5D055E"/>
</g>
<g opacity="0.25">
<path d="M123.646 99.8739C124.254 100.682 124.834 101.32 125.326 101.806C122.592 101.872 119.892 102.052 117.454 102.268V95.4499C117.454 95.3699 117.454 95.2879 117.452 95.2079L122.106 92.2439C122.104 94.4839 122.322 98.1059 123.646 99.8739Z" fill="#5D055E"/>
</g>
<g opacity="0.25">
<path d="M117.44 118.102C117.45 117.042 117.456 115.982 117.456 114.922V113.16C118.358 113.204 119.162 113.316 119.708 113.412C120.056 113.472 120.412 113.408 120.716 113.236C123.15 114.9 125.302 116.496 126.69 117.784C124.198 117.388 120.544 117.114 117.442 118.102H117.44Z" fill="#5D055E"/>
</g>
<g opacity="0.25">
<path d="M117.07 89.5978C116.596 85.9738 115.682 82.4878 114.388 79.1938C116.508 81.2938 119.36 83.7559 121.96 84.7839C124.732 85.8799 127.48 86.1298 129.262 86.1498L122.492 90.4638C122.288 90.3738 122.064 90.3259 121.832 90.3338C120.862 90.3639 118.988 90.3038 117.068 89.5978H117.07Z" fill="#5D055E"/>
</g>
<g opacity="0.25">
<path d="M130.858 86.8339C130.818 90.1059 131.056 96.0099 133.122 98.7639C134.366 100.42 135.54 101.606 136.394 102.372C133.592 101.92 130.388 101.76 127.158 101.778C127.086 101.684 127.008 101.592 126.912 101.512C126.38 101.06 125.562 100.274 124.678 99.0959C123.834 97.9699 123.356 95.2699 123.398 91.8739C123.4 91.7299 123.38 91.5879 123.342 91.4499L130.84 86.6759C130.852 86.7259 130.86 86.7779 130.858 86.8319V86.8339Z" fill="#5D055E"/>
</g>
<g opacity="0.25">
<path d="M127.962 117.218C126.538 115.814 124.164 114.03 121.462 112.178C121.478 112.098 121.488 112.018 121.488 111.938C121.504 111.21 121.592 110.328 121.75 109.32C121.952 108.044 123.844 106.024 126.81 103.914C127.098 103.71 127.304 103.414 127.396 103.08C130.702 103.068 133.958 103.244 136.726 103.74C136.718 103.746 136.714 103.756 136.704 103.76C133.818 105.81 128.896 109.742 128.38 113.018C128.128 114.616 127.988 116.024 127.962 117.2C127.962 117.204 127.96 117.21 127.96 117.218H127.962Z" fill="#5D055E"/>
</g>
<g opacity="0.25">
<path d="M187.224 112.864C183.774 106.886 164.18 110.774 143.202 121.646C133.736 126.55 125.59 132.046 119.772 137.174C117.396 131.872 117.204 126.578 117.308 123.834C117.362 122.384 117.398 120.934 117.422 119.484C120.71 118.284 124.948 118.788 126.95 119.138C127.514 119.238 128.092 119.084 128.536 118.718C128.984 118.352 129.246 117.806 129.258 117.228C129.282 116.11 129.418 114.764 129.658 113.22C129.984 111.172 132.824 108.108 137.456 104.816C137.956 104.46 138.258 103.906 138.284 103.296C138.312 102.684 138.058 102.102 137.59 101.704C136.772 101.008 135.514 99.7979 134.158 97.9919C132.254 95.4519 132.122 89.3559 132.152 86.8539C132.16 86.3079 131.95 85.7979 131.562 85.4179C131.174 85.0379 130.666 84.8379 130.122 84.8559C128.57 84.9059 125.514 84.8039 122.436 83.5879C118.788 82.1459 114.378 77.4139 112.786 75.6099C112.292 74.6219 111.76 73.6539 111.196 72.7079C111.512 72.4499 111.834 72.1999 112.162 71.9539C113.402 71.0299 114.732 70.1919 116.15 69.4539C116.314 69.3699 116.476 69.2879 116.642 69.2079C117.758 68.6559 118.894 68.1819 120.042 67.7899C125.968 65.7519 132.236 65.7799 137.938 67.5919C144.906 69.8019 151.032 74.6739 154.66 81.6799L160.422 92.8059C161.3 94.5019 162.16 96.2119 162.974 97.9399C164.236 100.622 168.1 107.152 176.104 108.056C185.016 109.06 186.9 112.152 187.222 112.866L187.224 112.864Z" fill="#5D055E"/>
</g>
<path d="M119.556 138.162L119.222 137.418C116.79 131.99 116.6 126.562 116.704 123.81C116.806 121.132 116.854 118.308 116.854 114.922V95.4479C116.854 87.5259 114.72 79.7679 110.68 73.0119L110.414 72.5679L110.814 72.2399C111.128 71.9819 111.462 71.7219 111.802 71.4679C113.076 70.5159 114.446 69.6579 115.872 68.9159C116.04 68.8299 116.206 68.7459 116.374 68.6639C117.508 68.1039 118.676 67.6159 119.844 67.2179C125.782 65.1759 132.1 65.1039 138.116 67.0139C145.544 69.3719 151.608 74.4799 155.19 81.3979L160.954 92.5219C161.97 94.4819 162.784 96.1199 163.516 97.6779C164.764 100.328 168.496 106.586 176.172 107.452C185.232 108.474 187.34 111.66 187.77 112.612L186.704 113.158C185.196 110.544 179.802 109.946 171.904 111.52C163.664 113.162 153.57 116.944 143.478 122.172C134.424 126.862 126.144 132.348 120.168 137.62L119.556 138.158V138.162ZM111.978 72.8459C115.956 79.6819 118.056 87.4839 118.056 95.4479V114.922C118.056 118.324 118.008 121.164 117.906 123.856C117.81 126.378 117.97 131.228 119.998 136.18C125.992 131.014 134.098 125.684 142.926 121.11C153.114 115.832 163.322 112.008 171.668 110.346C175.176 109.648 178.206 109.366 180.684 109.496C179.414 109.152 177.882 108.856 176.036 108.648C167.76 107.714 163.764 101.024 162.43 98.1919C161.704 96.6479 160.896 95.0219 159.888 93.0759L154.124 81.9519C150.69 75.3179 144.876 70.4199 137.754 68.1579C131.986 66.3259 125.926 66.3939 120.234 68.3539C119.112 68.7359 117.994 69.2019 116.906 69.7399C116.744 69.8199 116.584 69.8999 116.424 69.9819C115.058 70.6919 113.744 71.5159 112.52 72.4299C112.336 72.5679 112.154 72.7059 111.976 72.8459H111.978Z" fill="#5D055E"/>
<g opacity="0.5">
<path d="M154.816 144.06C147.834 147.676 141.002 150.52 134.87 152.486C134.1 151.734 133.214 150.944 132.202 150.126C138.412 148.236 145.758 145.218 153.372 141.274C172.14 131.55 185.402 119.9 182.99 115.246C182.972 115.21 182.95 115.172 182.93 115.138V115.134C180.6 111.17 166.954 113.954 150.926 121.35C152.948 125.484 151.308 130.496 147.202 132.624C143.146 134.726 138.178 133.238 135.926 129.312C129.952 132.93 124.896 136.61 121.224 139.942C120.664 139.026 120.182 138.1 119.768 137.174C125.586 132.044 133.732 126.548 143.2 121.644C164.178 110.774 183.772 106.886 187.22 112.864V112.872C187.25 112.918 187.274 112.966 187.302 113.014C190.508 119.204 175.962 133.104 154.814 144.062L154.816 144.06Z" fill="#5D055E"/>
</g>
<path d="M134.71 153.168L134.452 152.916C133.65 152.134 132.766 151.354 131.826 150.594L130.946 149.882L132.03 149.552C138.464 147.594 145.75 144.548 153.1 140.74C162.136 136.058 170.174 130.79 175.732 125.906C180.944 121.326 183.46 117.444 182.462 115.52L182.452 115.5C182.444 115.484 182.434 115.468 182.426 115.452L182.406 115.418C180.61 112.434 169.282 113.622 151.722 121.644C152.54 123.644 152.62 125.85 151.938 127.924C151.19 130.196 149.608 132.054 147.484 133.154C143.328 135.306 138.288 133.97 135.736 130.13C130.104 133.574 125.238 137.112 121.634 140.382L121.096 140.87L120.718 140.25C120.162 139.34 119.66 138.386 119.226 137.414L119.046 137.012L119.378 136.72C125.428 131.386 133.792 125.84 142.93 121.108C153.118 115.83 163.326 112.006 171.672 110.344C180.23 108.64 185.938 109.426 187.746 112.56L187.782 112.626C187.79 112.642 187.8 112.658 187.81 112.676L187.834 112.72C189.526 115.984 186.958 121.114 180.612 127.18C174.436 133.082 165.374 139.266 155.096 144.59C148.324 148.096 141.396 151.024 135.056 153.054L134.712 153.164L134.71 153.168ZM133.436 150.372C133.992 150.846 134.524 151.326 135.028 151.806C141.21 149.8 147.95 146.942 154.54 143.528C164.72 138.254 173.682 132.14 179.778 126.316C185.62 120.734 188.168 115.986 186.77 113.29L186.75 113.254C186.736 113.226 186.72 113.2 186.706 113.174L186.67 113.11C185.118 110.542 179.744 109.964 171.902 111.526C163.662 113.168 153.568 116.95 143.476 122.178C134.59 126.78 126.45 132.15 120.5 137.332C120.766 137.9 121.058 138.462 121.37 139.008C125.08 135.728 129.988 132.21 135.616 128.8L136.142 128.482L136.448 129.016C138.556 132.694 143.16 134.046 146.928 132.094C150.706 130.136 152.258 125.436 150.39 121.616L150.12 121.064L150.678 120.806C158.528 117.184 166.084 114.55 171.952 113.394C176.308 112.536 181.838 112.088 183.448 114.83L183.462 114.854C183.49 114.902 183.512 114.94 183.53 114.98C185.19 118.208 180.636 123.194 176.522 126.81C170.894 131.756 162.77 137.082 153.65 141.808C146.636 145.44 139.674 148.39 133.438 150.372H133.436Z" fill="#5D055E"/>
<g opacity="0.75">
<path d="M153.372 141.274C145.758 145.218 138.412 148.238 132.202 150.126C131.044 149.186 129.714 148.202 128.194 147.186C125.076 145.094 122.832 142.572 121.226 139.942C124.898 136.61 129.956 132.93 135.928 129.312C138.18 133.238 143.148 134.726 147.204 132.624C151.31 130.496 152.95 125.484 150.928 121.35C166.956 113.954 180.602 111.17 182.928 115.134V115.138C182.95 115.172 182.972 115.21 182.99 115.246C185.402 119.898 172.14 131.55 153.372 141.274Z" fill="#5D055E"/>
</g>
<path d="M150.93 121.35C152.952 125.484 151.312 130.496 147.206 132.624C143.15 134.726 138.18 133.236 135.93 129.31C138.66 127.658 141.58 126.016 144.646 124.426C146.768 123.326 148.87 122.298 150.93 121.348V121.35Z" fill="#5D055E"/>
<path d="M143.288 134.184C140.134 134.184 137.086 132.536 135.408 129.61L135.116 129.102L135.618 128.798C138.412 127.106 141.358 125.456 144.37 123.896C146.476 122.804 148.6 121.766 150.68 120.806L151.212 120.56L151.47 121.086C152.518 123.228 152.684 125.658 151.936 127.926C151.188 130.198 149.606 132.056 147.482 133.156C146.138 133.852 144.704 134.184 143.29 134.184H143.288ZM136.758 129.51C138.984 132.808 143.336 133.952 146.928 132.09C150.53 130.224 152.11 125.864 150.628 122.15C148.742 123.03 146.824 123.974 144.92 124.96C142.118 126.412 139.374 127.942 136.758 129.51Z" fill="#5D055E"/>
<g opacity="0.5">
<path d="M137.59 101.702C136.772 101.006 135.514 99.7959 134.158 97.9899C132.254 95.4499 132.122 89.3539 132.152 86.8519C132.16 86.3059 131.95 85.7959 131.562 85.4159C131.174 85.0359 130.666 84.8359 130.122 84.8539C128.57 84.9039 125.514 84.8019 122.436 83.5859C118.788 82.1439 114.378 77.4119 112.786 75.6079C113.372 76.7759 113.906 77.9739 114.388 79.1979C116.508 81.2979 119.36 83.7599 121.96 84.7879C124.732 85.8839 127.48 86.1339 129.262 86.1539L122.492 90.4679C122.288 90.3779 122.064 90.3299 121.832 90.3379C120.862 90.3679 118.988 90.3079 117.068 89.6019C117.13 90.0719 117.186 90.5459 117.232 91.0219C118.51 91.4179 119.728 91.5699 120.686 91.6179L117.418 93.6999C117.438 94.2019 117.448 94.7059 117.45 95.2119L122.104 92.2479C122.102 94.4879 122.32 98.1099 123.644 99.8779C124.252 100.686 124.832 101.324 125.324 101.81C122.59 101.876 119.89 102.056 117.452 102.272V103.586C120.01 103.36 122.86 103.174 125.722 103.11C123.43 104.776 120.79 107.096 120.472 109.126C120.342 109.942 120.256 110.686 120.218 111.342C119.314 110.736 118.384 110.126 117.452 109.53V111.074C117.918 111.376 118.382 111.68 118.842 111.984C118.406 111.932 117.94 111.89 117.452 111.868V113.164C118.354 113.208 119.158 113.32 119.704 113.416C120.052 113.476 120.408 113.412 120.712 113.24C123.146 114.904 125.298 116.5 126.686 117.788C124.194 117.392 120.54 117.118 117.438 118.106C117.432 118.568 117.428 119.026 117.418 119.486C120.706 118.286 124.944 118.79 126.946 119.14C127.51 119.24 128.088 119.086 128.532 118.72C128.98 118.354 129.242 117.808 129.254 117.23C129.278 116.112 129.414 114.766 129.654 113.222C129.98 111.174 132.82 108.11 137.452 104.818C137.952 104.462 138.254 103.908 138.28 103.298C138.308 102.686 138.054 102.104 137.586 101.706L137.59 101.702ZM124.68 99.0999C123.836 97.9739 123.358 95.2739 123.4 91.8779C123.402 91.7339 123.382 91.5919 123.344 91.4539L130.842 86.6799C130.854 86.7299 130.862 86.7819 130.86 86.8359C130.82 90.1079 131.058 96.0119 133.124 98.7659C134.368 100.422 135.542 101.608 136.396 102.374C133.594 101.922 130.39 101.762 127.16 101.78C127.088 101.686 127.01 101.594 126.914 101.514C126.382 101.062 125.564 100.276 124.68 99.0979V99.0999ZM136.706 103.762C133.82 105.812 128.898 109.744 128.382 113.02C128.13 114.618 127.99 116.026 127.964 117.202C127.964 117.206 127.962 117.212 127.962 117.22C126.538 115.816 124.164 114.032 121.462 112.18C121.478 112.1 121.488 112.02 121.488 111.94C121.504 111.212 121.592 110.33 121.75 109.322C121.952 108.046 123.844 106.026 126.81 103.916C127.098 103.712 127.304 103.416 127.396 103.082C130.702 103.07 133.958 103.246 136.726 103.742C136.718 103.748 136.714 103.758 136.704 103.762H136.706Z" fill="#5D055E"/>
</g>
<path d="M80.654 46.7999C80.654 48.4899 80.278 50.0899 79.604 51.5239C77.74 51.2459 75.836 51.0859 73.9 51.0479C74.966 49.9499 75.622 48.4499 75.622 46.7999C75.622 43.4159 72.88 40.6759 69.502 40.6759C66.124 40.6759 63.382 43.4139 63.382 46.7999C63.382 48.7679 64.314 50.5199 65.758 51.6379C63.858 51.9499 62 52.3859 60.186 52.9339C59.026 51.1719 58.348 49.0659 58.348 46.7999C58.348 40.6399 63.34 35.6439 69.5 35.6439C75.66 35.6439 80.652 40.6399 80.652 46.7999H80.654Z" fill="#5D055E"/>
<g opacity="0.5">
<path d="M29.024 99.454C28.896 99.476 28.77 99.5 28.642 99.522V95.448C28.642 91.482 29.162 87.638 30.138 83.98C31.056 85.308 32.044 86.684 33.102 88.08C35.648 91.446 38.814 95.224 42.448 98.758C42.396 98.786 42.332 98.806 42.252 98.798C39.68 98.634 34.542 98.502 29.024 99.452V99.454Z" fill="#5D055E"/>
</g>
<g opacity="0.5">
<path d="M34.146 87.3179C32.86 85.6199 31.674 83.9519 30.598 82.3699C32.42 76.4499 35.45 71.0559 39.396 66.4779C39.658 66.6959 39.926 66.9139 40.202 67.1299C43.022 69.3699 46.752 71.9399 51.362 74.3059C48.478 76.6219 41.736 82.5639 41.12 87.9359C40.734 91.2979 41.318 94.3299 41.966 96.4539C38.968 93.3879 36.326 90.1999 34.146 87.3179Z" fill="#5D055E"/>
</g>
<g opacity="0.5">
<path d="M41.048 66.1499C40.778 65.9359 40.514 65.7219 40.256 65.5099C40.922 64.7779 41.616 64.0679 42.33 63.3839C42.542 63.8559 42.784 64.3019 43.064 64.7159C44.86 67.3719 47.046 69.7179 48.882 71.4799C45.764 69.6699 43.148 67.8179 41.046 66.1499H41.048Z" fill="#5D055E"/>
</g>
<g opacity="0.5">
<path d="M43.762 110.262C37.578 111.326 32.512 113.288 28.642 116.118V100.852C34.384 99.7819 39.782 99.9359 42.17 100.09C42.624 100.118 43.06 99.9579 43.39 99.6559C47.64 103.648 52.49 107.242 57.724 109.444C54.532 109.304 49.316 109.306 43.764 110.262H43.762Z" fill="#5D055E"/>
</g>
<g opacity="0.5">
<path d="M44.134 63.9919C43.818 63.5239 43.554 63.0059 43.34 62.4479C47.656 58.5579 52.74 55.5019 58.334 53.5399C57.6 58.1899 57.018 65.7999 59.97 70.1659C62.374 73.7199 65.388 76.7959 67.664 78.8819C61.97 77.5759 56.986 75.6639 52.738 73.5539C52.648 73.2419 52.47 72.9599 52.214 72.7459C50.336 71.1579 46.788 67.9139 44.136 63.9919H44.134Z" fill="#5D055E"/>
</g>
<g opacity="0.5">
<path d="M57.752 96.9319C57.164 102.05 58.54 106.496 59.434 108.732C53.758 106.614 48.49 102.734 43.932 98.3979C43.928 98.2019 43.888 98.0059 43.814 97.8159C43.08 95.9979 41.92 92.3159 42.406 88.0839C42.986 83.0439 50.036 77.0279 52.184 75.3039C52.328 75.1879 52.452 75.0499 52.548 74.8999C57.348 77.2439 63.042 79.3339 69.608 80.6139C69.688 80.7279 69.7 80.8459 69.7 80.9159C69.698 81.0079 69.672 81.1799 69.506 81.3139C66.208 83.9619 58.458 90.7839 57.752 96.9339V96.9319Z" fill="#5D055E"/>
</g>
<g opacity="0.5">
<path d="M140.1 161.774C139.96 158.66 137.342 155.726 132.798 153.124C131.574 152.42 130.212 151.746 128.72 151.094C125.024 149.486 120.532 148.048 115.414 146.826C114.266 146.552 113.086 146.29 111.876 146.038C111.524 145.964 111.172 145.892 110.816 145.82C100.066 143.672 87.064 142.416 73.064 142.416C36.058 142.416 6.05199 151.196 6.02399 162.024C6.02399 162.024 4.76199 155.988 17.898 147.186C28.482 140.092 28.984 128.022 28.78 123.598C28.69 121.648 28.65 119.696 28.642 117.744C38.19 110.162 53.99 110.49 58.866 110.798C59.492 110.838 60.084 110.558 60.45 110.05C60.48 110.006 60.506 109.964 60.532 109.918H60.534C60.822 109.432 60.874 108.846 60.662 108.316C59.814 106.218 58.474 101.964 59.036 97.0779C59.706 91.2459 67.838 84.3059 70.316 82.3179C70.738 81.9779 70.986 81.4719 70.992 80.9279C70.998 80.4039 70.778 79.9119 70.394 79.5619C70.39 79.5579 70.384 79.5539 70.378 79.5499C70.368 79.5419 70.358 79.5299 70.348 79.5219C68.184 77.6959 64.096 73.9559 61.038 69.4379C58.216 65.2639 58.992 57.4539 59.728 53.0739C59.878 53.0239 60.032 52.9779 60.182 52.9319C61.996 52.3839 63.856 51.9499 65.756 51.6379C68.128 51.2459 70.562 51.0419 73.046 51.0419C73.33 51.0419 73.614 51.0439 73.896 51.0479C75.832 51.0859 77.738 51.2459 79.6 51.5239C89.238 52.9479 97.87 57.4719 104.444 64.0499C107.032 66.6379 109.302 69.5439 111.192 72.7039C115.168 79.3539 117.45 87.1359 117.45 95.4499V114.924C117.45 117.892 117.414 120.866 117.302 123.834C117.198 126.578 117.39 131.872 119.766 137.174C120.18 138.1 120.662 139.026 121.222 139.942C122.828 142.572 125.072 145.096 128.19 147.188C129.712 148.204 131.04 149.188 132.198 150.128C133.21 150.944 134.096 151.736 134.868 152.488C139.94 157.44 140.148 160.858 140.096 161.776L140.1 161.774Z" fill="#5D055E"/>
</g>
<path d="M6.612 167.75L5.43999 162.146C5.38599 161.884 4.24599 155.61 17.568 146.688C27.796 139.834 28.4 128.278 28.184 123.628C28.09 121.592 28.042 119.406 28.042 116.944V95.4479C28.042 85.5899 31.17 76.2279 37.09 68.3779C42.816 60.7839 50.956 55.0939 60.012 52.3579C61.868 51.7979 63.768 51.3559 65.66 51.0439C68.088 50.6439 70.574 50.4399 73.048 50.4399C73.338 50.4399 73.624 50.4419 73.91 50.4479C75.854 50.4859 77.8 50.6479 79.692 50.9299C89.278 52.3459 97.984 56.7359 104.87 63.6239C107.502 66.2559 109.804 69.2079 111.71 72.3959C115.86 79.3379 118.054 87.3099 118.054 95.4479V114.922C118.054 118.324 118.006 121.164 117.904 123.856C117.804 126.504 117.984 131.724 120.318 136.928C120.732 137.854 121.21 138.762 121.738 139.63C123.456 142.444 125.74 144.818 128.528 146.688C130.006 147.678 131.37 148.678 132.58 149.662C133.548 150.444 134.46 151.25 135.288 152.058C140.528 157.176 140.754 160.816 140.698 161.81L139.5 161.804C139.374 159.016 136.954 156.196 132.5 153.648C131.318 152.968 129.966 152.296 128.48 151.648C124.82 150.056 120.376 148.63 115.274 147.414C114.12 147.14 112.936 146.876 111.754 146.63C111.404 146.556 111.052 146.486 110.698 146.414C99.59 144.196 86.576 143.022 73.064 143.022C55.222 143.022 38.454 145.052 25.846 148.74C13.644 152.31 6.638 157.154 6.626 162.03L6.612 167.754V167.75ZM73.048 51.6419C70.638 51.6419 68.218 51.8399 65.854 52.2299C64.014 52.5339 62.164 52.9639 60.358 53.5079C42.038 59.0439 29.242 76.2899 29.242 95.4499V116.946C29.242 119.388 29.288 121.556 29.382 123.574C29.606 128.428 28.97 140.492 18.234 147.688C14.444 150.226 11.884 152.524 10.154 154.498C13.556 151.916 18.738 149.568 25.508 147.588C38.222 143.87 55.11 141.822 73.062 141.822C86.652 141.822 99.746 143.004 110.932 145.238C111.29 145.31 111.646 145.382 111.998 145.456C113.19 145.704 114.384 145.97 115.55 146.248C120.72 147.482 125.232 148.93 128.956 150.55C130.484 151.216 131.876 151.908 133.094 152.61C134.126 153.2 135.054 153.804 135.878 154.418C135.452 153.938 134.978 153.44 134.448 152.922C133.646 152.142 132.764 151.36 131.822 150.6C130.638 149.638 129.306 148.66 127.858 147.69C124.924 145.722 122.52 143.224 120.712 140.26C120.156 139.35 119.654 138.396 119.22 137.424C116.788 131.998 116.598 126.57 116.702 123.816C116.804 121.138 116.852 118.314 116.852 114.928V95.4539C116.852 87.5319 114.718 79.7739 110.678 73.0179C108.822 69.9139 106.582 67.0419 104.02 64.4779C97.318 57.7739 88.844 53.4999 79.514 52.1219C77.67 51.8459 75.778 51.6899 73.886 51.6519C73.608 51.6479 73.328 51.6439 73.046 51.6439L73.048 51.6419Z" fill="#5D055E"/>
<path d="M140.098 161.784V161.774C139.616 151.06 109.79 142.416 73.064 142.416C36.338 142.416 6.052 151.196 6.026 162.024V162.038C6.026 172.876 36.042 181.66 73.064 181.66C110.086 181.66 140.102 172.876 140.102 162.038C140.102 161.954 140.1 161.868 140.098 161.784ZM73.064 176.784C40.208 176.784 13.57 170.182 13.57 162.038V162.026C13.594 153.888 40.224 147.292 73.064 147.292C105.904 147.292 132.122 153.788 132.55 161.842V161.85C132.552 161.912 132.554 161.976 132.554 162.04C132.554 170.186 105.92 176.786 73.062 176.786L73.064 176.784Z" fill="#5D055E"/>
<path d="M73.064 182.26C55.102 182.26 38.208 180.21 25.492 176.49C12.552 172.702 5.42401 167.57 5.42401 162.04C5.43801 156.498 12.57 151.37 25.508 147.586C38.222 143.868 55.11 141.82 73.062 141.82C91.014 141.82 107.656 143.838 120.336 147.504C133.218 151.228 140.448 156.288 140.694 161.75V161.776L140.094 161.786L140.694 161.782C140.696 161.868 140.698 161.954 140.698 162.04C140.698 167.572 133.572 172.704 120.632 176.49C107.918 180.212 91.022 182.26 73.06 182.26H73.064ZM73.064 143.018C55.222 143.018 38.454 145.048 25.846 148.736C13.644 152.306 6.63801 157.15 6.62601 162.026C6.62601 166.918 13.626 171.766 25.83 175.338C38.438 179.028 55.214 181.06 73.064 181.06C90.914 181.06 107.692 179.028 120.3 175.338C132.504 171.766 139.504 166.918 139.504 162.038C139.504 161.964 139.502 161.888 139.5 161.814V161.792C139.272 156.958 132.168 152.17 120.006 148.656C107.43 145.02 90.76 143.018 73.064 143.018ZM73.064 177.386C57.126 177.386 42.134 175.846 30.852 173.05C25.332 171.682 20.988 170.084 17.942 168.298C14.642 166.364 12.97 164.258 12.97 162.04C12.976 159.81 14.654 157.706 17.956 155.774C21.004 153.99 25.348 152.392 30.868 151.026C42.15 148.232 57.136 146.694 73.066 146.694C88.996 146.694 103.762 148.21 115.012 150.966C120.516 152.314 124.87 153.89 127.958 155.652C131.288 157.554 133.036 159.626 133.152 161.812V161.844C133.156 161.896 133.158 161.968 133.158 162.042C133.158 164.262 131.486 166.366 128.186 168.3C125.14 170.086 120.798 171.684 115.278 173.052C103.996 175.848 89.006 177.388 73.066 177.388L73.064 177.386ZM73.064 147.892C57.228 147.892 42.346 149.418 31.156 152.19C20.372 154.86 14.182 158.446 14.17 162.028C14.17 165.622 20.356 169.212 31.14 171.884C42.33 174.658 57.22 176.186 73.064 176.186C88.908 176.186 103.798 174.658 114.988 171.884C125.772 169.212 131.956 165.622 131.956 162.038C131.956 161.982 131.954 161.926 131.952 161.872V161.856C131.746 158.302 125.468 154.758 114.726 152.126C103.566 149.394 88.77 147.888 73.066 147.888L73.064 147.892Z" fill="#5D055E"/>
<g opacity="0.5">
<path d="M132.556 162.038C132.556 170.184 105.922 176.784 73.064 176.784C40.206 176.784 13.57 170.182 13.57 162.038V162.026C13.59 155.218 32.226 149.492 57.542 147.8C57.842 154.828 63.636 160.436 70.736 160.436C77.836 160.436 83.774 154.69 83.938 147.54C111.348 148.794 132.17 154.708 132.55 161.844V161.852C132.552 161.914 132.554 161.978 132.554 162.042L132.556 162.038Z" fill="#5D055E"/>
</g>
<path d="M30.032 137.998C29.864 137.998 29.696 137.926 29.576 137.788C29.36 137.536 29.39 137.158 29.64 136.942C29.744 136.854 32.24 134.75 38.538 132.646C44.29 130.724 54.478 128.434 70.346 128.434C70.678 128.434 70.946 128.702 70.946 129.034C70.946 129.366 70.678 129.634 70.346 129.634C40.354 129.634 30.518 137.772 30.422 137.854C30.308 137.952 30.17 137.998 30.032 137.998Z" fill="#5D055E"/>
<path d="M84.368 129.634H73.928C73.596 129.634 73.328 129.366 73.328 129.034C73.328 128.702 73.596 128.434 73.928 128.434H84.368C84.7 128.434 84.968 128.702 84.968 129.034C84.968 129.366 84.7 129.634 84.368 129.634Z" fill="#5D055E"/>
<path d="M111.786 99.7619C111.474 99.7619 111.212 99.5219 111.188 99.2059C110.292 87.0479 104.412 78.1199 99.638 72.7719C94.446 66.9559 89.398 63.9899 89.348 63.9599C89.062 63.7939 88.964 63.4259 89.13 63.1399C89.296 62.8539 89.664 62.7559 89.95 62.9219C90.162 63.0439 95.188 65.9939 100.504 71.9399C105.414 77.4319 111.462 86.6039 112.384 99.1179C112.408 99.4479 112.16 99.7359 111.83 99.7599C111.814 99.7599 111.8 99.7599 111.786 99.7599V99.7619Z" fill="#5D055E"/>
<path d="M116.062 134.728C115.936 134.728 115.81 134.688 115.702 134.608C111.854 131.722 101.176 130.46 101.068 130.448C100.738 130.41 100.502 130.112 100.54 129.784C100.578 129.454 100.876 129.218 101.204 129.256C101.656 129.308 112.314 130.568 116.42 133.648C116.686 133.846 116.738 134.224 116.54 134.488C116.422 134.646 116.242 134.728 116.06 134.728H116.062Z" fill="#5D055E"/>
<path d="M34.092 170.648C33.774 170.648 33.456 170.57 33.168 170.414C31.414 169.464 28.16 167.812 26.062 167.404C23.048 166.818 16.296 167.988 16.228 168C15.902 168.056 15.59 167.84 15.534 167.512C15.476 167.186 15.696 166.874 16.022 166.818C16.308 166.768 23.06 165.598 26.292 166.226C28.548 166.664 31.926 168.378 33.74 169.36C33.932 169.464 34.15 169.478 34.354 169.402C34.556 169.326 34.71 169.17 34.784 168.968C35.69 166.48 37.764 162.158 41.466 161.148C44.534 160.312 47.548 160.714 49.538 161.198C49.766 161.254 50.002 161.2 50.182 161.054C50.362 160.906 50.462 160.688 50.454 160.454C50.316 156.526 50.818 147.322 58.46 146.698C58.79 146.672 59.08 146.916 59.106 147.248C59.132 147.578 58.888 147.868 58.556 147.894C51.944 148.434 51.524 156.828 51.652 160.412C51.674 161.024 51.414 161.598 50.94 161.984C50.464 162.37 49.85 162.508 49.254 162.364C47.402 161.912 44.604 161.538 41.782 162.306C38.6 163.174 36.738 167.11 35.912 169.38C35.72 169.908 35.308 170.326 34.782 170.526C34.56 170.61 34.326 170.652 34.094 170.652L34.092 170.648Z" fill="#5D055E"/>
<path d="M30.6 159.326C30.38 159.326 30.162 159.274 29.964 159.17C29.362 158.854 28.18 158.334 25.956 157.646C21.922 156.398 15.442 158.222 15.376 158.242C15.058 158.332 14.726 158.148 14.634 157.83C14.542 157.512 14.728 157.18 15.046 157.088C15.326 157.008 21.934 155.146 26.31 156.5C28.166 157.074 29.582 157.614 30.522 158.108C30.576 158.136 30.626 158.13 30.658 158.118C30.684 158.108 30.732 158.084 30.758 158.02C31.444 156.36 33.13 153.514 36.728 153.098C39.652 152.76 41.626 153.132 42.77 153.502C42.832 153.522 42.88 153.502 42.91 153.486C42.934 153.47 42.978 153.434 42.988 153.364C43.234 151.596 43.744 149.256 44.786 148.148C45.012 147.906 45.392 147.896 45.634 148.122C45.876 148.348 45.886 148.728 45.66 148.97C45.026 149.644 44.484 151.306 44.176 153.528C44.12 153.93 43.89 154.286 43.546 154.502C43.202 154.718 42.784 154.768 42.398 154.644C41.368 154.31 39.574 153.978 36.864 154.29C33.876 154.634 32.45 157.062 31.866 158.478C31.718 158.834 31.428 159.114 31.066 159.246C30.916 159.3 30.758 159.328 30.6 159.328V159.326Z" fill="#5D055E"/>
<path d="M34.458 170.596C34.204 170.596 33.966 170.432 33.886 170.176L30.314 158.85C30.214 158.534 30.39 158.198 30.706 158.098C31.022 157.998 31.358 158.174 31.458 158.49L35.03 169.816C35.13 170.132 34.954 170.468 34.638 170.568C34.578 170.586 34.518 170.596 34.458 170.596Z" fill="#5D055E"/>
<path d="M50.19 162.328C50.03 162.328 49.868 162.264 49.75 162.136L42.63 154.476C42.404 154.234 42.418 153.854 42.662 153.628C42.904 153.402 43.284 153.416 43.51 153.66L50.63 161.32C50.856 161.562 50.842 161.942 50.598 162.168C50.482 162.276 50.336 162.328 50.19 162.328Z" fill="#5D055E"/>
<path d="M91.118 164.344C90.632 164.344 90.17 164.142 89.838 163.784C88.684 162.536 86.512 160.31 84.936 159.408C82.672 158.112 76.9 157.204 76.842 157.196C76.514 157.146 76.29 156.838 76.342 156.51C76.392 156.182 76.7 155.96 77.026 156.01C77.272 156.048 83.074 156.962 85.532 158.366C87.16 159.298 89.252 161.382 90.72 162.968C90.83 163.086 90.978 163.152 91.138 163.142C91.298 163.136 91.44 163.064 91.54 162.94C92.968 161.164 95.858 158.21 99.174 158.416C101.906 158.584 104.25 159.746 105.734 160.69C105.88 160.782 106.056 160.802 106.218 160.742C106.378 160.682 106.5 160.554 106.55 160.388C107.526 157.146 110.486 149.784 116.92 151.396C117.242 151.476 117.436 151.802 117.356 152.124C117.274 152.446 116.95 152.64 116.628 152.56C111.198 151.194 108.576 157.822 107.7 160.734C107.54 161.262 107.154 161.676 106.638 161.868C106.12 162.06 105.558 162 105.092 161.704C103.726 160.836 101.578 159.768 99.102 159.616C96.33 159.442 93.76 162.098 92.478 163.694C92.16 164.088 91.688 164.326 91.182 164.344C91.162 164.344 91.142 164.344 91.12 164.344H91.118Z" fill="#5D055E"/>
<path d="M91.25 154.194C90.908 154.194 90.576 154.052 90.34 153.802C89.942 153.384 89.132 152.64 87.526 151.476C84.626 149.372 78.904 149.066 78.846 149.064C78.516 149.048 78.26 148.766 78.276 148.436C78.292 148.106 78.568 147.846 78.904 147.866C79.154 147.878 85.04 148.19 88.23 150.506C89.578 151.484 90.58 152.314 91.208 152.976C91.212 152.98 91.22 152.99 91.25 152.994C91.268 152.994 91.282 152.986 91.294 152.972C92.318 151.802 94.494 149.94 97.564 150.602C100.038 151.136 101.546 151.986 102.376 152.606C102.382 152.61 102.396 152.622 102.422 152.616C102.448 152.61 102.458 152.592 102.46 152.584C103.15 151.208 104.218 149.44 105.386 148.82C105.678 148.664 106.042 148.776 106.198 149.068C106.354 149.36 106.242 149.724 105.95 149.88C105.266 150.242 104.386 151.426 103.532 153.124C103.364 153.458 103.06 153.698 102.698 153.784C102.336 153.87 101.956 153.79 101.658 153.568C100.924 153.02 99.572 152.264 97.31 151.776C94.84 151.242 93.046 152.792 92.196 153.762C91.962 154.028 91.626 154.186 91.274 154.192C91.266 154.192 91.258 154.192 91.248 154.192L91.25 154.194Z" fill="#5D055E"/>
<path d="M91.062 164.342C91.062 164.342 91.054 164.342 91.048 164.342C90.716 164.334 90.454 164.06 90.462 163.728L90.686 153.578C90.694 153.252 90.96 152.992 91.286 152.992C91.29 152.992 91.294 152.992 91.3 152.992C91.632 153 91.894 153.274 91.886 153.606L91.662 163.756C91.654 164.082 91.388 164.342 91.062 164.342Z" fill="#5D055E"/>
<path d="M106.07 161.976C105.84 161.976 105.622 161.844 105.522 161.622L101.866 153.464C101.73 153.162 101.866 152.806 102.168 152.672C102.47 152.536 102.826 152.672 102.96 152.974L106.616 161.132C106.752 161.434 106.616 161.79 106.314 161.924C106.234 161.96 106.152 161.976 106.07 161.976Z" fill="#5D055E"/>
<path d="M83.94 147.538C83.774 154.688 77.928 160.434 70.738 160.434C63.548 160.434 57.844 154.826 57.544 147.798C62.492 147.468 67.696 147.29 73.066 147.29C76.78 147.29 80.416 147.374 83.94 147.536V147.538Z" fill="#5D055E"/>
<g opacity="0.25">
<path d="M70.394 79.5659C70.394 79.5659 70.384 79.5579 70.378 79.5539C70.368 79.5459 70.358 79.5339 70.348 79.5259C68.184 77.6999 64.096 73.9599 61.038 69.4419C58.216 65.2679 58.992 57.4579 59.728 53.0779C59.258 53.2219 58.792 53.3779 58.332 53.5419C57.598 58.1919 57.016 65.8019 59.968 70.1679C62.372 73.7219 65.386 76.7979 67.662 78.8839C61.968 77.5779 56.984 75.6659 52.736 73.5559C52.646 73.2439 52.468 72.9619 52.212 72.7479C50.334 71.1599 46.786 67.9159 44.134 63.9939C43.818 63.5259 43.554 63.0079 43.34 62.4499C42.998 62.7559 42.662 63.0679 42.33 63.3879C42.542 63.8599 42.784 64.3059 43.064 64.7199C44.86 67.3759 47.046 69.7219 48.882 71.4839C45.764 69.6739 43.148 67.8219 41.046 66.1539C40.776 65.9399 40.512 65.7259 40.254 65.5139C39.96 65.8299 39.676 66.1539 39.396 66.4819C39.658 66.6999 39.926 66.9179 40.202 67.1339C43.022 69.3739 46.752 71.9439 51.362 74.3099C48.478 76.6259 41.736 82.5679 41.12 87.9399C40.734 91.3019 41.318 94.3339 41.966 96.4579C38.968 93.3919 36.326 90.2039 34.146 87.3219C32.86 85.6239 31.674 83.9559 30.598 82.3739C30.436 82.9059 30.282 83.4439 30.136 83.9859C31.054 85.3139 32.042 86.6899 33.1 88.0859C35.646 91.4519 38.812 95.2299 42.446 98.7639C42.394 98.7919 42.33 98.8119 42.25 98.8039C39.678 98.6399 34.54 98.5079 29.022 99.4579C28.894 99.4799 28.768 99.5039 28.64 99.5259V100.856C34.382 99.7859 39.78 99.9399 42.168 100.094C42.622 100.122 43.058 99.9619 43.388 99.6599C47.638 103.652 52.488 107.246 57.722 109.448C54.53 109.308 49.314 109.31 43.762 110.266C37.578 111.33 32.512 113.292 28.642 116.122V116.948C28.642 117.216 28.642 117.482 28.644 117.75C38.192 110.168 53.992 110.496 58.868 110.804C59.494 110.844 60.086 110.564 60.452 110.056C60.482 110.012 60.508 109.97 60.534 109.924H60.536C60.824 109.438 60.876 108.852 60.664 108.322C59.816 106.224 58.476 101.97 59.038 97.0839C59.708 91.2519 67.84 84.3119 70.318 82.3239C70.74 81.9839 70.988 81.4779 70.994 80.9339C71 80.4099 70.78 79.9179 70.396 79.5679L70.394 79.5659ZM69.506 81.3139C66.208 83.9619 58.458 90.7839 57.752 96.9339C57.164 102.052 58.54 106.498 59.434 108.734C53.758 106.616 48.49 102.736 43.932 98.3999C43.928 98.2039 43.888 98.0079 43.814 97.8179C43.08 95.9999 41.92 92.3179 42.406 88.0859C42.986 83.0459 50.036 77.0299 52.184 75.3059C52.328 75.1899 52.452 75.0519 52.548 74.9019C57.348 77.2459 63.042 79.3359 69.608 80.6159C69.688 80.7299 69.7 80.8479 69.7 80.9179C69.698 81.0099 69.672 81.1819 69.506 81.3159V81.3139Z" fill="#5D055E"/>
</g>
<g opacity="0.5">
<path d="M150.994 20.22H106.87C104.472 20.22 102.53 22.164 102.53 24.56V49.816C102.53 52.214 104.474 54.156 106.87 54.156H113.9V58.246C113.9 60.128 116.124 61.128 117.532 59.878L123.982 54.156H150.996C153.394 54.156 155.336 52.212 155.336 49.816V24.56C155.336 22.162 153.392 20.22 150.996 20.22H150.994Z" fill="#5D055E"/>
</g>
<path d="M116.094 61.0359C115.708 61.0359 115.316 60.9539 114.944 60.7859C113.932 60.3299 113.302 59.3579 113.302 58.2479V54.7579H106.872C104.148 54.7579 101.932 52.5419 101.932 49.8179V24.5619C101.932 21.8379 104.148 19.6219 106.872 19.6219H150.996C153.72 19.6219 155.936 21.8379 155.936 24.5619V49.8179C155.936 52.5419 153.72 54.7579 150.996 54.7579H124.21L117.93 60.3299C117.406 60.7959 116.756 61.0359 116.094 61.0359ZM106.872 20.8199C104.81 20.8199 103.132 22.4979 103.132 24.5599V49.8159C103.132 51.8779 104.81 53.556 106.872 53.556H114.502V58.246C114.502 58.886 114.852 59.426 115.436 59.69C116.02 59.952 116.656 59.8559 117.136 59.4299L123.756 53.556H150.998C153.06 53.556 154.738 51.8779 154.738 49.8159V24.5599C154.738 22.4979 153.06 20.8199 150.998 20.8199H106.874H106.872Z" fill="#5D055E"/>
<path d="M136.356 38.5899C136.356 41.4659 135.71 43.6859 134.418 45.2459C133.126 46.8059 131.304 47.5859 128.954 47.5859C126.604 47.5859 124.75 46.8019 123.454 45.2319C122.158 43.6619 121.508 41.4479 121.508 38.5919V34.7019C121.508 31.8259 122.154 29.6079 123.446 28.0459C124.738 26.4859 126.564 25.7059 128.924 25.7059C131.284 25.7059 133.112 26.4919 134.41 28.0599C135.706 29.6299 136.356 31.8479 136.356 34.7159V38.5919V38.5899ZM131.426 34.0699C131.426 32.5399 131.226 31.3959 130.826 30.6399C130.426 29.8839 129.792 29.5059 128.924 29.5059C128.056 29.5059 127.458 29.8579 127.074 30.5599C126.688 31.2619 126.482 32.3259 126.452 33.7479V39.1899C126.452 40.7799 126.652 41.9419 127.052 42.6779C127.452 43.4139 128.086 43.7819 128.954 43.7819C129.822 43.7819 130.412 43.4239 130.812 42.7059C131.212 41.9899 131.416 40.8659 131.426 39.3339V34.0679V34.0699Z" fill="#5D055E"/>
<g opacity="0.25">
<path d="M17.442 47.676H20.356C25.172 47.676 29.532 49.628 32.688 52.784C35.846 55.942 37.796 60.3 37.796 65.116C37.796 66.466 37.638 67.776 37.348 69.038C38.128 67.984 38.952 66.966 39.818 65.988C39.826 65.98 39.836 65.968 39.844 65.96C40.288 65.462 40.742 64.976 41.206 64.498C41.252 64.452 41.294 64.406 41.34 64.36C41.658 64.034 41.984 63.714 42.314 63.396C42.318 63.392 42.322 63.386 42.33 63.38C42.34 63.37 42.352 63.36 42.362 63.35C43.202 62.546 44.074 61.776 44.978 61.038C44.996 61.022 45.01 61.01 45.028 60.998C45.278 60.796 45.528 60.596 45.782 60.396C45.822 60.364 45.864 60.332 45.904 60.3C46.154 60.108 46.406 59.916 46.66 59.73C46.686 59.71 46.712 59.692 46.738 59.672C47.292 59.264 47.856 58.868 48.432 58.484C48.506 58.434 48.578 58.388 48.652 58.34C48.86 58.202 49.072 58.064 49.284 57.93C49.37 57.874 49.458 57.82 49.546 57.764C49.76 57.63 49.976 57.496 50.194 57.368C50.268 57.322 50.34 57.278 50.414 57.234C50.702 57.062 50.994 56.894 51.286 56.728C51.332 56.702 51.378 56.678 51.424 56.652C51.67 56.514 51.918 56.378 52.168 56.246C52.264 56.192 52.364 56.14 52.464 56.088C52.666 55.982 52.872 55.876 53.076 55.774C53.182 55.722 53.284 55.668 53.39 55.616C53.61 55.508 53.832 55.4 54.054 55.294C54.136 55.256 54.218 55.216 54.302 55.178C54.61 55.034 54.918 54.894 55.228 54.758C55.262 54.742 55.3 54.728 55.334 54.712C55.612 54.592 55.892 54.472 56.172 54.356C56.258 54.322 56.342 54.288 56.428 54.252C56.67 54.156 56.912 54.058 57.156 53.966C57.238 53.934 57.32 53.904 57.402 53.872C57.686 53.766 57.97 53.664 58.256 53.562C58.284 53.552 58.31 53.54 58.338 53.532C58.35 53.528 58.364 53.524 58.376 53.52C58.484 53.482 58.592 53.444 58.7 53.408C58.868 53.35 59.036 53.294 59.206 53.238C59.352 53.19 59.502 53.144 59.65 53.098C59.678 53.09 59.706 53.078 59.734 53.07C59.884 53.02 60.038 52.974 60.188 52.928C59.028 51.166 58.35 49.06 58.35 46.794C58.35 40.634 63.344 35.638 69.504 35.638C75.664 35.638 80.658 40.634 80.658 46.794C80.658 48.484 80.28 50.086 79.608 51.518C79.91 51.564 80.21 51.61 80.508 51.66C87.092 52.772 93.182 55.334 98.438 59.004C98.474 59.03 98.51 59.054 98.546 59.08C98.778 59.244 99.01 59.41 99.24 59.578C101.09 60.934 102.834 62.426 104.452 64.044C105.838 65.43 107.13 66.906 108.324 68.464C108.112 67.38 107.998 66.26 107.998 65.112C107.998 60.96 109.452 57.146 111.876 54.152H106.874C104.476 54.152 102.534 52.208 102.534 49.812V24.556C102.534 22.158 104.478 20.216 106.874 20.216H150.998C153.396 20.216 155.338 22.16 155.338 24.556V46.768C162.256 44.454 167.244 37.928 167.244 30.232C167.244 25.416 165.292 21.056 162.136 17.9C158.978 14.742 154.62 12.792 149.804 12.792H17.442C7.81 12.796 0 20.606 0 30.238C0 35.054 1.952 39.414 5.108 42.568C8.266 45.726 12.624 47.676 17.44 47.676H17.442Z" fill="#5D055E"/>
<path d="M155.116 82.5599L156.962 86.1219L160.422 92.8019C161.114 94.1339 161.79 95.4739 162.442 96.8259C162.62 97.1939 162.8 97.5639 162.974 97.9359C164.19 100.52 167.818 106.666 175.23 107.926C175.516 107.976 175.806 108.018 176.104 108.054C176.57 108.106 177.014 108.166 177.442 108.228C185.204 109.376 186.916 112.186 187.222 112.864V112.87C187.25 112.918 187.276 112.964 187.302 113.012C187.84 114.052 187.876 115.31 187.466 116.736C194.708 114.616 199.998 107.928 199.998 99.9999C199.998 95.1839 198.046 90.8239 194.89 87.6699C191.732 84.5119 187.374 82.5619 182.558 82.5619H155.116V82.5599Z" fill="#5D055E"/>
<path d="M69.5 40.676C66.12 40.676 63.38 43.414 63.38 46.798C63.38 48.768 64.31 50.518 65.756 51.636H65.758C68.13 51.244 70.564 51.04 73.048 51.04H73.128C73.386 51.04 73.642 51.042 73.9 51.046C74.966 49.948 75.622 48.448 75.622 46.798C75.622 43.414 72.882 40.676 69.502 40.676H69.5Z" fill="#5D055E"/>
<path d="M79.398 51.496C79.466 51.506 79.536 51.514 79.604 51.524C79.188 51.462 78.772 51.406 78.352 51.358C78.7 51.398 79.05 51.446 79.396 51.496H79.398Z" fill="#5D055E"/>
<path d="M182.558 152.32H165.67C160.854 152.32 156.494 150.368 153.338 147.212C152.814 146.688 152.328 146.128 151.874 145.542C149.386 146.762 146.93 147.882 144.526 148.892C141.18 150.3 137.938 151.504 134.872 152.486C139.94 157.434 140.152 160.852 140.1 161.772V161.784C140.102 161.868 140.104 161.954 140.104 162.038C140.104 172.874 110.092 181.658 73.064 181.658C36.036 181.658 6.02601 172.876 6.02601 162.04V162.024C6.00401 161.92 5.47601 158.936 9.63601 154.166C3.92401 157.032 0.00201416 162.938 0.00201416 169.762C0.00201416 174.578 1.95401 178.938 5.11001 182.094C8.26801 185.252 12.626 187.202 17.442 187.202H182.558C192.19 187.202 200 179.392 200 169.76C200 164.944 198.048 160.584 194.892 157.428C191.736 154.272 187.376 152.32 182.56 152.32H182.558Z" fill="#5D055E"/>
<path d="M62.822 52.226C62.164 52.378 61.514 52.55 60.868 52.732C61.514 52.548 62.168 52.38 62.822 52.226Z" fill="#5D055E"/>
<path d="M17.442 117.44H28.644C28.644 117.274 28.644 117.108 28.644 116.944V95.45C28.644 95.416 28.646 95.384 28.646 95.348C28.646 94.954 28.654 94.562 28.666 94.17C28.668 94.048 28.672 93.926 28.676 93.804C28.692 93.396 28.71 92.99 28.736 92.584C28.742 92.484 28.752 92.386 28.758 92.288C28.782 91.946 28.81 91.602 28.842 91.262C28.852 91.15 28.862 91.036 28.872 90.924C28.912 90.528 28.958 90.132 29.01 89.74C29.026 89.62 29.04 89.5 29.058 89.382C29.106 89.04 29.154 88.696 29.21 88.354C29.222 88.274 29.234 88.192 29.246 88.112C29.312 87.718 29.384 87.324 29.462 86.934C29.484 86.816 29.508 86.7 29.53 86.58C29.61 86.186 29.694 85.792 29.784 85.402C29.796 85.344 29.812 85.286 29.824 85.23C29.91 84.866 30 84.506 30.096 84.146C30.108 84.092 30.122 84.036 30.136 83.98C30.152 83.924 30.166 83.87 30.182 83.816C30.214 83.694 30.248 83.572 30.284 83.452C30.332 83.284 30.378 83.118 30.426 82.95C30.45 82.868 30.474 82.788 30.5 82.706C30.532 82.594 30.564 82.48 30.6 82.368C30.628 82.28 30.656 82.194 30.684 82.108C30.732 81.96 30.778 81.81 30.828 81.662C30.884 81.488 30.94 81.314 31 81.138C31.096 80.85 31.198 80.56 31.304 80.274C31.358 80.122 31.416 79.97 31.474 79.82C31.538 79.646 31.604 79.474 31.672 79.302C31.73 79.15 31.79 78.998 31.85 78.848C31.924 78.67 31.996 78.49 32.072 78.312C32.128 78.176 32.186 78.038 32.244 77.902C32.252 77.884 32.26 77.868 32.268 77.85C29.15 80.768 24.962 82.558 20.356 82.558H17.442C7.81 82.558 0 90.366 0 99.996C0 104.812 1.952 109.174 5.108 112.328C8.266 115.486 12.624 117.436 17.44 117.436L17.442 117.44Z" fill="#5D055E"/>
</g>
</svg>
