<?xml version="1.0" encoding="UTF-8"?>
<!DOCTYPE svg PUBLIC "-//W3C//DTD SVG 1.1//EN" "http://www.w3.org/Graphics/SVG/1.1/DTD/svg11.dtd">
<!-- Creator: CorelDRAW 2021 (64-Bit) -->
<svg xmlns="http://www.w3.org/2000/svg" xml:space="preserve" width="5.19996in" height="2.24041in" version="1.1" style="shape-rendering:geometricPrecision; text-rendering:geometricPrecision; image-rendering:optimizeQuality; fill-rule:evenodd; clip-rule:evenodd"
viewBox="0 0 5199.95 2240.41"
 xmlns:xlink="http://www.w3.org/1999/xlink"
 xmlns:xodm="http://www.corel.com/coreldraw/odm/2003">
 <defs>
  <style type="text/css">
   <![CDATA[
    .fil3 {fill:#660066}
    .fil4 {fill:black;fill-rule:nonzero}
    .fil0 {fill:#660066;fill-rule:nonzero}
    .fil2 {fill:url(#id0)}
    .fil1 {fill:url(#id1);fill-rule:nonzero}
   ]]>
  </style>
  <linearGradient id="id0" gradientUnits="userSpaceOnUse" x1="1962.02" y1="245.66" x2="-1215" y2="2262.79">
   <stop offset="0" style="stop-opacity:1; stop-color:#660066"/>
   <stop offset="1" style="stop-opacity:1; stop-color:#000066"/>
  </linearGradient>
  <linearGradient id="id1" gradientUnits="objectBoundingBox" xlink:href="#id0" x1="30.1261%" y1="0%" x2="29.8169%" y2="207.831%">
  </linearGradient>
 </defs>
 <g id="Layer_x0020_1">
  <metadata id="CorelCorpID_0Corel-Layer"/>
  <g id="_2021294419616">
   <polygon class="fil0" points="2975.59,990.77 2567.38,990.77 2567.38,203.77 2659.55,203.77 2659.55,907.41 2975.59,907.41 "/>
   <polygon id="_1" class="fil0" points="3188.6,990.77 3096.43,990.77 3096.43,203.77 3188.6,203.77 "/>
   <path id="_2" class="fil0" d="M3980.67 203.77l-291.5 787.01 -101.54 0 -285.31 -787.01 102.66 0 217.87 624.02c6.93,20.04 12.18,43.28 15.93,69.69l2.06 0c3,-21.92 8.99,-45.52 18.17,-70.81l222.37 -622.9 99.29 0z"/>
   <polygon id="_3" class="fil0" points="4185.99,990.77 4093.82,990.77 4093.82,203.77 4185.99,203.77 "/>
   <path id="_4" class="fil0" d="M4710.16 1003.89c-111.65,0 -201.01,-36.72 -268.08,-110.34 -67.07,-73.44 -100.79,-169.17 -100.79,-287 0,-126.64 34.28,-227.61 102.66,-302.92 68.38,-75.31 161.67,-113.15 279.51,-113.15 108.66,0 196.14,36.72 262.46,109.78 66.5,73.25 99.67,168.98 99.67,287.19 0,128.33 -34.09,229.86 -102.1,304.61 -68,74.56 -159.05,111.84 -273.33,111.84zm6.56 -729.87c-82.62,0 -149.68,29.78 -201.39,89.36 -51.52,59.76 -77.37,138.07 -77.37,234.93 0,97.04 25.1,174.97 75.5,234.17 50.21,59.01 115.96,88.61 196.7,88.61 86.37,0 154.37,-28.1 204.2,-84.49 49.83,-56.39 74.56,-135.26 74.56,-236.61 0,-103.97 -23.98,-184.15 -72.31,-240.92 -48.33,-56.76 -115.03,-85.05 -199.89,-85.05z"/>
   <path class="fil1" d="M3066.54 1884.25c-57.32,27.72 -132.45,41.59 -224.99,41.59 -120.65,0 -215.63,-35.41 -284.76,-106.41 -69.31,-71 -103.78,-165.61 -103.78,-283.82 0,-125.89 38.78,-227.99 116.52,-306.3 77.74,-78.31 178.72,-117.46 302.74,-117.46 76.81,0 141.63,9.74 194.27,29.22l0 170.67c-52.64,-31.47 -112.59,-47.21 -180.03,-47.21 -73.81,0 -133.57,23.23 -178.91,69.69 -45.33,46.46 -68,109.41 -68,188.84 0,76.06 21.36,136.76 64.26,181.91 42.71,45.15 100.41,67.82 172.91,67.82 69.13,0 132.45,-16.86 189.77,-50.58l0 162.05z"/>
   <path id="_1_0" class="fil1" d="M3895.89 1912.16l-193.15 0 -56.02 -175.16 -279.88 0 -55.45 175.16 -192.21 0 286.63 -787.01 210.2 0 279.88 787.01zm-289.81 -311.17l-84.49 -264.52c-6.18,-19.86 -10.68,-43.46 -13.3,-70.81l-4.31 0c-1.87,23.04 -6.37,45.9 -13.67,68.56l-85.61 266.77 201.39 0z"/>
   <path id="_2_1" class="fil1" d="M4654.42 1912.16l-203.64 0 -122.33 -202.51c-9.18,-15.36 -17.98,-29.04 -26.42,-41.22 -8.43,-11.99 -16.86,-22.29 -25.48,-30.91 -8.62,-8.62 -17.61,-15.17 -26.98,-19.86 -9.37,-4.5 -19.48,-6.74 -30.35,-6.74l-47.77 0 0 301.24 -177.41 0 0 -787.01 281.01 0c191.09,0 286.63,71.37 286.63,213.94 0,27.54 -4.31,52.83 -12.74,76.06 -8.43,23.23 -20.23,44.21 -35.59,62.94 -15.36,18.55 -33.91,34.66 -55.64,48.15 -21.92,13.68 -46.09,24.17 -72.87,31.85l0 2.25c11.8,3.75 23.04,9.56 34.09,17.8 11.05,8.24 21.54,17.8 31.85,28.85 10.3,11.05 20.05,22.85 29.41,35.41 9.37,12.55 17.8,24.92 25.48,37.09l148.75 232.67zm-482.96 -654.18l0 219 76.81 0c38.03,0 68.57,-11.05 91.61,-32.97 23.42,-22.3 35.22,-50.02 35.22,-82.81 0,-68.94 -41.21,-103.22 -123.64,-103.22l-80 0z"/>
   <polygon id="_3_2" class="fil1" points="5199.95,1912.16 4727.86,1912.16 4727.86,1125.15 5181.78,1125.15 5181.78,1269.4 4905.27,1269.4 4905.27,1444.56 5162.67,1444.56 5162.67,1588.25 4905.27,1588.25 4905.27,1768.28 5199.95,1768.28 "/>
   <path class="fil2" d="M2322.98 1173.39c-7.3,17.14 -14.59,32.91 -19.11,42.36 -25.99,54.27 -84.37,147.45 -121.83,193.36 -70.14,85.89 -61.93,77.74 -149.66,165.51 -107,106.95 -189.29,170.1 -295.65,262.76l-475.12 393.29c-54.48,36.52 -72.5,-36.48 -107.84,-106.45 -64.41,-127.64 -184.96,-246.02 -285.18,-345.13 -50.97,-50.45 -238.82,-201.15 -304.11,-254.38l-168.75 -146.38c-142.87,-144.15 -254.11,-253.63 -334.72,-455.97 -98.98,-248.38 -84.97,-503 96.9,-707.99 17.49,-19.72 14.93,-23.09 37.35,-40.06 15.16,-11.46 23.61,-21.5 38.67,-33.21 49.03,-38.02 83.31,-61.16 143.88,-88.35 263.9,-118.43 561,-28.84 724.31,182.35 27.48,35.52 77.09,100.68 88.42,149.34 14.69,-10.76 16.48,-21.95 25.75,-40.6 34.1,-68.53 104.21,-145.54 166.97,-192.42 28.47,-21.25 53.59,-39.21 87.3,-56.48 115.96,-59.3 288.27,-90.72 409.94,-28.09l-35.15 74.65c-98.33,-48.69 -248.3,-16.44 -341.58,30.88 -107.65,54.64 -180.71,142.81 -232.23,248.83 -44.62,91.8 -9.89,167.82 -86.54,167.82 -34.18,0 -33.08,-59.65 -41.12,-91.62 -8.34,-33.06 -21.21,-70.02 -34.72,-97.94 -20.69,-42.59 -50.3,-82.92 -79.74,-119.3 -194.31,-240.41 -550.2,-262.85 -774.81,-46.51 -97.57,93.98 -169.92,211.81 -169.92,360.91 0,125.87 17.44,217.05 64.46,322.56 36.91,82.79 73.86,140.04 124.29,207.47 95.01,126.96 214.66,223.2 332.26,325.73l178.8 147.43c46.26,36.12 92.24,72.93 133.79,115.04l82.94 77.41c69.2,68.45 225.78,255.02 244.61,335.92 24.95,-2.06 20.95,-8.6 38,-22.81l385.41 -316.8c24.78,-19.47 45.56,-40.7 68.71,-58.46l297.25 -272.26c13.19,-14.23 15.85,-21.48 30.31,-36.03 21.41,-21.54 38.32,-44.92 57.13,-70.07 31.17,-41.72 82.46,-114.29 112.12,-176.3l88.21 0z"/>
   <g>
    <polygon class="fil3" points="1041.97,1111.6 969.19,917.03 586.83,917.03 586.83,956.41 941.88,956.41 1050.14,1245.83 1131.17,909.49 1241.65,1440.95 1361.95,1000.79 1377.74,1063.75 1447.87,1066.47 2342.45,1081.1 2343.09,1041.73 1457.68,1027.25 1788.48,421.96 1759.11,406.96 1410.68,1030.43 1358.91,854.56 1247.16,1273.98 1133.99,729.61 "/>
    <polygon class="fil3" points="1985.48,98.56 1867.98,286.22 1840.33,268.9 1957.82,81.24 "/>
    <polygon class="fil3" points="2320.75,566.09 2113.93,645.15 2102.28,614.67 2309.1,535.61 "/>
    <polygon class="fil3" points="2063.6,228.68 1980.77,317.86 1967.62,305.65 2050.46,216.47 "/>
    <polygon class="fil3" points="2316.12,665.81 2201.03,705.43 2195.2,688.47 2310.29,648.85 "/>
    <polygon class="fil3" points="2135.23,304.45 2038.69,378.59 2027.77,364.36 2124.31,290.22 "/>
    <polygon class="fil3" points="2343.27,761.15 2225.33,791.23 2220.89,773.85 2338.83,743.76 "/>
    <polygon class="fil3" points="2193.23,391.1 2085.69,448.11 2077.29,432.26 2184.83,375.25 "/>
    <polygon class="fil3" points="2353.36,856.5 2232.42,870.19 2230.4,852.37 2351.35,838.68 "/>
    <polygon class="fil3" points="2233.49,476.61 2125.61,532.96 2117.3,517.07 2225.19,460.7 "/>
    <polygon class="fil3" points="2347.65,962.12 2225.98,965.58 2225.47,947.65 2347.14,944.19 "/>
   </g>
   <path class="fil4" d="M2692.03 2125.8c-2.67,0 -4.93,-0.95 -6.83,-2.85 -1.87,-1.93 -2.82,-4.22 -2.82,-6.89 0,-2.67 0.95,-4.96 2.82,-6.92 1.9,-1.93 4.16,-2.91 6.83,-2.91 2.73,0 5.05,0.98 6.98,2.91 1.9,1.96 2.85,4.24 2.85,6.92 0,2.67 -0.95,4.96 -2.85,6.89 -1.93,1.9 -4.25,2.85 -6.98,2.85z"/>
   <path id="_1_3" class="fil4" d="M2730.67 2125.8c-2.67,0 -4.93,-0.95 -6.83,-2.85 -1.87,-1.93 -2.82,-4.22 -2.82,-6.89 0,-2.67 0.95,-4.96 2.82,-6.92 1.9,-1.93 4.16,-2.91 6.83,-2.91 2.73,0 5.05,0.98 6.98,2.91 1.9,1.96 2.85,4.24 2.85,6.92 0,2.67 -0.95,4.96 -2.85,6.89 -1.93,1.9 -4.25,2.85 -6.98,2.85z"/>
   <path id="_2_4" class="fil4" d="M2769.31 2125.8c-2.67,0 -4.93,-0.95 -6.83,-2.85 -1.87,-1.93 -2.82,-4.22 -2.82,-6.89 0,-2.67 0.95,-4.96 2.82,-6.92 1.9,-1.93 4.16,-2.91 6.83,-2.91 2.73,0 5.05,0.98 6.98,2.91 1.9,1.96 2.85,4.24 2.85,6.92 0,2.67 -0.95,4.96 -2.85,6.89 -1.93,1.9 -4.25,2.85 -6.98,2.85z"/>
   <path id="_3_5" class="fil4" d="M2898.31 2049.23c-2.5,-1.9 -6.09,-2.85 -10.78,-2.85 -6.12,0 -11.2,2.85 -15.3,8.61 -4.07,5.73 -6.12,13.57 -6.12,23.49l0 45.41 -14.29 0 0 -89.11 14.29 0 0 18.36 0.36 0c2.02,-6.27 5.11,-11.14 9.3,-14.67 4.19,-3.5 8.85,-5.26 14.02,-5.26 3.71,0 6.54,0.41 8.52,1.22l0 14.79z"/>
   <path id="_4_6" class="fil4" d="M2983.04 2082.91l-62.91 0c0.24,9.92 2.91,17.58 8.02,22.99 5.11,5.38 12.12,8.08 21.06,8.08 10.04,0 19.24,-3.3 27.68,-9.92l0 13.4c-7.84,5.7 -18.21,8.52 -31.07,8.52 -12.59,0 -22.48,-4.04 -29.67,-12.12 -7.22,-8.11 -10.81,-19.48 -10.81,-34.16 0,-13.87 3.95,-25.16 11.79,-33.89 7.87,-8.73 17.64,-13.1 29.28,-13.1 11.67,0 20.67,3.78 27.06,11.32 6.39,7.51 9.56,18 9.56,31.39l0 7.48zm-14.61 -12.09c-0.06,-8.23 -2.05,-14.65 -5.94,-19.25 -3.92,-4.57 -9.36,-6.86 -16.33,-6.86 -6.71,0 -12.44,2.41 -17.14,7.22 -4.69,4.81 -7.61,11.11 -8.7,18.89l48.12 0z"/>
   <path id="_5" class="fil4" d="M3068.44 2123.9l-14.28 0 0 -13.93 -0.33 0c-6.21,10.69 -15.36,16.01 -27.42,16.01 -8.88,0 -15.83,-2.35 -20.85,-7.04 -5.02,-4.69 -7.51,-10.93 -7.51,-18.71 0,-16.63 9.8,-26.34 29.4,-29.05l26.7 -3.74c0,-15.15 -6.12,-22.72 -18.36,-22.72 -10.72,0 -20.41,3.65 -29.05,10.96l0 -14.61c8.76,-5.58 18.83,-8.35 30.27,-8.35 20.94,0 31.42,11.08 31.42,33.24l0 57.95zm-14.28 -45.09l-21.48 2.97c-6.62,0.92 -11.61,2.56 -14.97,4.93 -3.36,2.35 -5.05,6.5 -5.05,12.47 0,4.34 1.55,7.9 4.67,10.67 3.09,2.76 7.22,4.13 12.39,4.13 7.07,0 12.92,-2.49 17.52,-7.43 4.63,-4.96 6.92,-11.26 6.92,-18.86l0 -8.88z"/>
   <polygon id="_6" class="fil4" points="3109.6,2123.9 3095.32,2123.9 3095.32,1991.99 3109.6,1991.99 "/>
   <polygon id="_7" class="fil4" points="3184.1,2079.88 3136.58,2079.88 3136.58,2068.66 3184.1,2068.66 "/>
   <path id="_8" class="fil4" d="M3251.07 2123.04c-3.36,1.84 -7.81,2.76 -13.31,2.76 -15.62,0 -23.41,-8.7 -23.41,-26.11l0 -52.72 -15.32 0 0 -12.18 15.32 0 0 -21.74 14.26 -4.63 0 26.37 22.45 0 0 12.18 -22.45 0 0 50.22c0,5.97 1.01,10.22 3.06,12.77 2.02,2.56 5.37,3.83 10.1,3.83 3.59,0 6.68,-0.98 9.3,-2.97l0 12.2z"/>
   <path id="_9" class="fil4" d="M3277.41 2012.16c-2.52,0 -4.72,-0.86 -6.5,-2.61 -1.81,-1.72 -2.7,-3.92 -2.7,-6.59 0,-2.67 0.89,-4.9 2.7,-6.65 1.78,-1.78 3.98,-2.67 6.5,-2.67 2.61,0 4.84,0.89 6.69,2.67 1.81,1.75 2.73,3.98 2.73,6.65 0,2.56 -0.92,4.72 -2.73,6.5 -1.84,1.81 -4.07,2.7 -6.69,2.7zm6.98 111.74l-14.29 0 0 -89.11 14.29 0 0 89.11z"/>
   <path id="_10" class="fil4" d="M3439.8 2123.9l-14.26 0 0 -51.18c0,-9.86 -1.54,-16.99 -4.57,-21.38 -3.06,-4.43 -8.17,-6.63 -15.36,-6.63 -6.09,0 -11.29,2.79 -15.53,8.35 -4.28,5.58 -6.42,12.24 -6.42,20.02l0 50.82 -14.26 0 0 -52.9c0,-17.52 -6.77,-26.29 -20.29,-26.29 -6.27,0 -11.41,2.61 -15.47,7.87 -4.07,5.26 -6.09,12.09 -6.09,20.5l0 50.82 -14.29 0 0 -89.11 14.29 0 0 14.11 0.36 0c6.3,-10.81 15.53,-16.19 27.65,-16.19 6.09,0 11.41,1.69 15.92,5.08 4.54,3.39 7.63,7.84 9.33,13.37 6.59,-12.3 16.45,-18.44 29.58,-18.44 19.6,0 29.41,12.09 29.41,36.27l0 54.92z"/>
   <path id="_11" class="fil4" d="M3538.37 2082.91l-62.91 0c0.24,9.92 2.91,17.58 8.02,22.99 5.11,5.38 12.12,8.08 21.06,8.08 10.04,0 19.24,-3.3 27.68,-9.92l0 13.4c-7.84,5.7 -18.21,8.52 -31.07,8.52 -12.59,0 -22.48,-4.04 -29.67,-12.12 -7.22,-8.11 -10.81,-19.48 -10.81,-34.16 0,-13.87 3.95,-25.16 11.79,-33.89 7.87,-8.73 17.64,-13.1 29.28,-13.1 11.67,0 20.67,3.78 27.06,11.32 6.39,7.51 9.56,18 9.56,31.39l0 7.48zm-14.61 -12.09c-0.06,-8.23 -2.05,-14.65 -5.94,-19.25 -3.92,-4.57 -9.36,-6.86 -16.33,-6.86 -6.71,0 -12.44,2.41 -17.14,7.22 -4.69,4.81 -7.61,11.11 -8.7,18.89l48.12 0z"/>
   <path id="_12" class="fil4" d="M3655.28 2049.23c-2.5,-1.9 -6.09,-2.85 -10.78,-2.85 -6.12,0 -11.2,2.85 -15.3,8.61 -4.07,5.73 -6.12,13.57 -6.12,23.49l0 45.41 -14.29 0 0 -89.11 14.29 0 0 18.36 0.36 0c2.02,-6.27 5.11,-11.14 9.3,-14.67 4.19,-3.5 8.85,-5.26 14.02,-5.26 3.71,0 6.54,0.41 8.52,1.22l0 14.79z"/>
   <path id="_13" class="fil4" d="M3740.02 2082.91l-62.91 0c0.24,9.92 2.91,17.58 8.02,22.99 5.11,5.38 12.12,8.08 21.06,8.08 10.04,0 19.24,-3.3 27.68,-9.92l0 13.4c-7.84,5.7 -18.21,8.52 -31.07,8.52 -12.59,0 -22.48,-4.04 -29.67,-12.12 -7.22,-8.11 -10.81,-19.48 -10.81,-34.16 0,-13.87 3.95,-25.16 11.79,-33.89 7.87,-8.73 17.64,-13.1 29.28,-13.1 11.67,0 20.67,3.78 27.06,11.32 6.39,7.51 9.56,18 9.56,31.39l0 7.48zm-14.61 -12.09c-0.06,-8.23 -2.05,-14.65 -5.94,-19.25 -3.92,-4.57 -9.36,-6.86 -16.33,-6.86 -6.71,0 -12.44,2.41 -17.14,7.22 -4.69,4.81 -7.61,11.11 -8.7,18.89l48.12 0z"/>
   <path id="_14" class="fil4" d="M3822.35 2119.8c-6.83,4.13 -14.97,6.18 -24.35,6.18 -12.71,0 -22.96,-4.13 -30.77,-12.39 -7.78,-8.26 -11.7,-18.98 -11.7,-32.17 0,-14.67 4.22,-26.46 12.62,-35.37 8.41,-8.88 19.63,-13.34 33.68,-13.34 7.84,0 14.73,1.43 20.7,4.34l0 14.61c-6.63,-4.63 -13.69,-6.95 -21.24,-6.95 -9.09,0 -16.57,3.27 -22.39,9.8 -5.82,6.5 -8.76,15.09 -8.76,25.69 0,10.45 2.76,18.68 8.22,24.71 5.5,6.03 12.83,9.06 22.07,9.06 7.78,0 15.09,-2.58 21.92,-7.75l0 13.57z"/>
   <path id="_15" class="fil4" d="M3881.16 2125.98c-13.16,0 -23.67,-4.16 -31.54,-12.47 -7.84,-8.32 -11.79,-19.37 -11.79,-33.12 0,-14.97 4.1,-26.64 12.27,-35.08 8.2,-8.41 19.24,-12.59 33.17,-12.59 13.28,0 23.65,4.07 31.1,12.27 7.46,8.17 11.17,19.52 11.17,34.01 0,14.23 -4.01,25.6 -12.03,34.16 -8.05,8.56 -18.83,12.83 -32.34,12.83zm1.04 -81.26c-9.15,0 -16.39,3.12 -21.74,9.36 -5.35,6.24 -8.02,14.82 -8.02,25.81 0,10.54 2.7,18.86 8.11,24.95 5.41,6.09 12.62,9.15 21.65,9.15 9.24,0 16.33,-3 21.3,-8.97 4.96,-5.97 7.43,-14.46 7.43,-25.48 0,-11.14 -2.46,-19.72 -7.43,-25.75 -4.96,-6.06 -12.06,-9.06 -21.3,-9.06z"/>
   <path id="_16" class="fil4" d="M3994.83 2049.23c-2.5,-1.9 -6.09,-2.85 -10.78,-2.85 -6.12,0 -11.2,2.85 -15.3,8.61 -4.07,5.73 -6.12,13.57 -6.12,23.49l0 45.41 -14.29 0 0 -89.11 14.29 0 0 18.36 0.36 0c2.02,-6.27 5.11,-11.14 9.3,-14.67 4.19,-3.5 8.85,-5.26 14.02,-5.26 3.71,0 6.54,0.41 8.52,1.22l0 14.79z"/>
   <path id="_17" class="fil4" d="M4084.02 2123.9l-14.29 0 0 -15.15 -0.33 0c-6.62,11.5 -16.84,17.23 -30.65,17.23 -11.17,0 -20.14,-3.98 -26.82,-11.97 -6.71,-7.96 -10.07,-18.83 -10.07,-32.58 0,-14.73 3.71,-26.52 11.14,-35.41 7.43,-8.88 17.31,-13.31 29.67,-13.31 12.24,0 21.15,4.81 26.73,14.44l0.33 0 0 -55.16 14.29 0 0 131.91zm-14.29 -40.28l0 -13.16c0,-7.19 -2.37,-13.28 -7.13,-18.27 -4.75,-4.99 -10.78,-7.48 -18.09,-7.48 -8.7,0 -15.56,3.18 -20.55,9.56 -4.99,6.39 -7.48,15.21 -7.48,26.46 0,10.28 2.41,18.36 7.19,24.33 4.78,5.94 11.23,8.91 19.28,8.91 7.96,0 14.41,-2.88 19.37,-8.61 4.96,-5.73 7.43,-13.01 7.43,-21.74z"/>
   <path id="_18" class="fil4" d="M4107.52 2120.69l0 -15.33c7.75,5.73 16.33,8.61 25.66,8.61 12.54,0 18.8,-4.19 18.8,-12.53 0,-2.38 -0.54,-4.4 -1.61,-6.03 -1.1,-1.66 -2.52,-3.12 -4.37,-4.39 -1.81,-1.28 -3.98,-2.44 -6.44,-3.45 -2.46,-1.01 -5.11,-2.08 -7.96,-3.18 -3.95,-1.57 -7.39,-3.15 -10.39,-4.75 -2.97,-1.57 -5.46,-3.39 -7.48,-5.37 -1.99,-2.02 -3.51,-4.28 -4.52,-6.83 -1.01,-2.56 -1.52,-5.56 -1.52,-8.97 0,-4.19 0.95,-7.87 2.85,-11.11 1.93,-3.21 4.49,-5.91 7.67,-8.08 3.21,-2.17 6.83,-3.83 10.93,-4.93 4.07,-1.1 8.31,-1.63 12.65,-1.63 7.72,0 14.61,1.34 20.7,3.98l0 14.46c-6.53,-4.31 -14.08,-6.44 -22.6,-6.44 -2.67,0 -5.08,0.3 -7.25,0.92 -2.14,0.59 -3.98,1.46 -5.52,2.56 -1.52,1.1 -2.7,2.44 -3.56,3.95 -0.83,1.55 -1.25,3.24 -1.25,5.11 0,2.31 0.42,4.25 1.25,5.82 0.86,1.57 2.08,2.97 3.71,4.19 1.6,1.22 3.59,2.32 5.91,3.3 2.32,0.98 4.96,2.05 7.93,3.2 3.92,1.52 7.49,3.06 10.61,4.67 3.12,1.6 5.79,3.39 8.02,5.41 2.2,1.99 3.89,4.31 5.08,6.92 1.19,2.61 1.78,5.7 1.78,9.3 0,4.43 -0.98,8.26 -2.91,11.5 -1.96,3.24 -4.54,5.94 -7.78,8.08 -3.26,2.17 -7.01,3.74 -11.22,4.81 -4.25,1.04 -8.67,1.54 -13.34,1.54 -9.15,0 -17.11,-1.75 -23.82,-5.29z"/>
   <polygon id="_19" class="fil4" points="4201.58,2104.06 4187.65,2146.86 4177.46,2146.86 4187.65,2104.06 "/>
   <path id="_20" class="fil4" d="M4322.47 2049.23c-2.5,-1.9 -6.09,-2.85 -10.78,-2.85 -6.12,0 -11.2,2.85 -15.3,8.61 -4.07,5.73 -6.12,13.57 -6.12,23.49l0 45.41 -14.29 0 0 -89.11 14.29 0 0 18.36 0.36 0c2.02,-6.27 5.11,-11.14 9.3,-14.67 4.19,-3.5 8.85,-5.26 14.02,-5.26 3.71,0 6.54,0.41 8.52,1.22l0 14.79z"/>
   <path id="_21" class="fil4" d="M4407.2 2082.91l-62.91 0c0.24,9.92 2.91,17.58 8.02,22.99 5.11,5.38 12.12,8.08 21.06,8.08 10.04,0 19.24,-3.3 27.68,-9.92l0 13.4c-7.84,5.7 -18.21,8.52 -31.07,8.52 -12.59,0 -22.48,-4.04 -29.67,-12.12 -7.22,-8.11 -10.81,-19.48 -10.81,-34.16 0,-13.87 3.95,-25.16 11.79,-33.89 7.87,-8.73 17.64,-13.1 29.28,-13.1 11.67,0 20.67,3.78 27.06,11.32 6.39,7.51 9.56,18 9.56,31.39l0 7.48zm-14.61 -12.09c-0.06,-8.23 -2.05,-14.65 -5.94,-19.25 -3.92,-4.57 -9.36,-6.86 -16.33,-6.86 -6.71,0 -12.44,2.41 -17.14,7.22 -4.69,4.81 -7.61,11.11 -8.7,18.89l48.12 0z"/>
   <polygon id="_22" class="fil4" points="4443.08,2123.9 4428.8,2123.9 4428.8,1991.99 4443.08,1991.99 "/>
   <path id="_23" class="fil4" d="M4479.26 2012.16c-2.52,0 -4.72,-0.86 -6.5,-2.61 -1.81,-1.72 -2.7,-3.92 -2.7,-6.59 0,-2.67 0.89,-4.9 2.7,-6.65 1.78,-1.78 3.98,-2.67 6.5,-2.67 2.61,0 4.84,0.89 6.69,2.67 1.81,1.75 2.73,3.98 2.73,6.65 0,2.56 -0.92,4.72 -2.73,6.5 -1.84,1.81 -4.07,2.7 -6.69,2.7zm6.98 111.74l-14.29 0 0 -89.11 14.29 0 0 89.11z"/>
   <path id="_24" class="fil4" d="M4578.91 2123.9l-14.28 0 0 -13.93 -0.33 0c-6.21,10.69 -15.36,16.01 -27.42,16.01 -8.88,0 -15.83,-2.35 -20.85,-7.04 -5.02,-4.69 -7.51,-10.93 -7.51,-18.71 0,-16.63 9.8,-26.34 29.4,-29.05l26.7 -3.74c0,-15.15 -6.12,-22.72 -18.36,-22.72 -10.72,0 -20.41,3.65 -29.05,10.96l0 -14.61c8.76,-5.58 18.83,-8.35 30.27,-8.35 20.94,0 31.42,11.08 31.42,33.24l0 57.95zm-14.28 -45.09l-21.48 2.97c-6.62,0.92 -11.61,2.56 -14.97,4.93 -3.36,2.35 -5.05,6.5 -5.05,12.47 0,4.34 1.55,7.9 4.67,10.67 3.09,2.76 7.22,4.13 12.39,4.13 7.07,0 12.92,-2.49 17.52,-7.43 4.63,-4.96 6.92,-11.26 6.92,-18.86l0 -8.88z"/>
   <path id="_25" class="fil4" d="M4620.43 2111.01l-0.36 0 0 12.89 -14.29 0 0 -131.91 14.29 0 0 58.45 0.36 0c7.01,-11.82 17.28,-17.73 30.8,-17.73 11.41,0 20.37,3.98 26.82,11.97 6.48,7.96 9.71,18.65 9.71,32.05 0,14.91 -3.62,26.85 -10.87,35.82 -7.25,8.94 -17.17,13.43 -29.76,13.43 -11.79,0 -20.67,-4.99 -26.7,-14.97zm-0.36 -35.94l0 12.44c0,7.37 2.38,13.63 7.19,18.77 4.78,5.14 10.84,7.69 18.2,7.69 8.65,0 15.42,-3.3 20.32,-9.92 4.9,-6.62 7.37,-15.8 7.37,-27.59 0,-9.92 -2.29,-17.67 -6.89,-23.31 -4.57,-5.61 -10.78,-8.44 -18.59,-8.44 -8.32,0 -14.97,2.88 -20.02,8.65 -5.05,5.79 -7.57,13.01 -7.57,21.71z"/>
   <polygon id="_26" class="fil4" points="4724.83,2123.9 4710.54,2123.9 4710.54,1991.99 4724.83,1991.99 "/>
   <path id="_27" class="fil4" d="M4825.31 2082.91l-62.91 0c0.24,9.92 2.91,17.58 8.02,22.99 5.11,5.38 12.12,8.08 21.06,8.08 10.04,0 19.24,-3.3 27.68,-9.92l0 13.4c-7.84,5.7 -18.21,8.52 -31.07,8.52 -12.59,0 -22.48,-4.04 -29.67,-12.12 -7.22,-8.11 -10.81,-19.48 -10.81,-34.16 0,-13.87 3.95,-25.16 11.79,-33.89 7.87,-8.73 17.64,-13.1 29.28,-13.1 11.67,0 20.67,3.78 27.06,11.32 6.39,7.51 9.56,18 9.56,31.39l0 7.48zm-14.61 -12.09c-0.06,-8.23 -2.05,-14.65 -5.94,-19.25 -3.92,-4.57 -9.36,-6.86 -16.33,-6.86 -6.71,0 -12.44,2.41 -17.14,7.22 -4.69,4.81 -7.61,11.11 -8.7,18.89l48.12 0z"/>
   <path id="_28" class="fil4" d="M4956.48 2119.8c-6.83,4.13 -14.97,6.18 -24.35,6.18 -12.71,0 -22.96,-4.13 -30.77,-12.39 -7.78,-8.26 -11.7,-18.98 -11.7,-32.17 0,-14.67 4.22,-26.46 12.62,-35.37 8.41,-8.88 19.63,-13.34 33.68,-13.34 7.84,0 14.73,1.43 20.7,4.34l0 14.61c-6.63,-4.63 -13.69,-6.95 -21.24,-6.95 -9.09,0 -16.57,3.27 -22.39,9.8 -5.82,6.5 -8.76,15.09 -8.76,25.69 0,10.45 2.76,18.68 8.22,24.71 5.5,6.03 12.83,9.06 22.07,9.06 7.78,0 15.09,-2.58 21.92,-7.75l0 13.57z"/>
   <path id="_29" class="fil4" d="M5041.84 2123.9l-14.28 0 0 -13.93 -0.33 0c-6.21,10.69 -15.36,16.01 -27.42,16.01 -8.88,0 -15.83,-2.35 -20.85,-7.04 -5.02,-4.69 -7.51,-10.93 -7.51,-18.71 0,-16.63 9.8,-26.34 29.4,-29.05l26.7 -3.74c0,-15.15 -6.12,-22.72 -18.36,-22.72 -10.72,0 -20.41,3.65 -29.05,10.96l0 -14.61c8.76,-5.58 18.83,-8.35 30.27,-8.35 20.94,0 31.42,11.08 31.42,33.24l0 57.95zm-14.28 -45.09l-21.48 2.97c-6.62,0.92 -11.61,2.56 -14.97,4.93 -3.36,2.35 -5.05,6.5 -5.05,12.47 0,4.34 1.55,7.9 4.67,10.67 3.09,2.76 7.22,4.13 12.39,4.13 7.07,0 12.92,-2.49 17.52,-7.43 4.63,-4.96 6.92,-11.26 6.92,-18.86l0 -8.88z"/>
   <path id="_30" class="fil4" d="M5115.2 2049.23c-2.5,-1.9 -6.09,-2.85 -10.78,-2.85 -6.12,0 -11.2,2.85 -15.3,8.61 -4.07,5.73 -6.12,13.57 -6.12,23.49l0 45.41 -14.29 0 0 -89.11 14.29 0 0 18.36 0.36 0c2.02,-6.27 5.11,-11.14 9.3,-14.67 4.19,-3.5 8.85,-5.26 14.02,-5.26 3.71,0 6.54,0.41 8.52,1.22l0 14.79z"/>
   <path id="_31" class="fil4" d="M5199.94 2082.91l-62.91 0c0.24,9.92 2.91,17.58 8.02,22.99 5.11,5.38 12.12,8.08 21.06,8.08 10.04,0 19.24,-3.3 27.68,-9.92l0 13.4c-7.84,5.7 -18.21,8.52 -31.07,8.52 -12.59,0 -22.48,-4.04 -29.67,-12.12 -7.22,-8.11 -10.81,-19.48 -10.81,-34.16 0,-13.87 3.95,-25.16 11.79,-33.89 7.87,-8.73 17.64,-13.1 29.28,-13.1 11.67,0 20.67,3.78 27.06,11.32 6.39,7.51 9.56,18 9.56,31.39l0 7.48zm-14.61 -12.09c-0.06,-8.23 -2.05,-14.65 -5.94,-19.25 -3.92,-4.57 -9.36,-6.86 -16.33,-6.86 -6.71,0 -12.44,2.41 -17.14,7.22 -4.69,4.81 -7.61,11.11 -8.7,18.89l48.12 0z"/>
  </g>
 </g>
</svg>
